<svg version="1.0" xmlns="http://www.w3.org/2000/svg"
 width="30px" height="30px" viewBox="0 0 512 512"
 preserveAspectRatio="xMidYMid meet">
<metadata>
Created by potrace 1.10, written by Peter Selinger 2001-2011
</metadata>
<g transform="scale(0.8, 0.8) translate(-150, -100)" fill="#ffffff" stroke="none">
    <path fill="#ffffff" d="
      M 347.79 326.10
      Q 347.14 325.97 346.08 325.40
      C 331.50 317.55 318.64 305.10 311.70 290.26
      Q 304.12 274.04 305.35 255.52
      Q 306.03 245.46 310.12 233.81
      Q 314.73 220.71 324.27 209.51
      C 336.70 194.90 355.06 185.50 374.02 181.03
      Q 375.86 180.60 380.70 179.68
      Q 383.34 179.18 386.34 178.99
      Q 389.04 178.82 391.71 178.20
      A 2.72 2.65 37.7 0 1 392.32 178.13
      Q 487.11 178.11 566.51 178.13
      C 568.70 178.13 571.35 178.53 573.44 178.75
      Q 600.94 181.57 625.13 190.58
      Q 660.26 203.66 688.71 225.81
      Q 695.96 231.46 701.80 236.54
      A 0.38 0.37 50.8 0 1 701.74 237.15
      Q 685.46 246.53 667.48 240.51
      Q 658.29 237.44 648.31 232.41
      Q 637.02 226.72 628.17 223.11
      Q 622.50 220.79 613.07 218.52
      Q 610.56 217.92 608.78 217.82
      C 606.79 217.71 605.18 217.02 603.03 216.90
      Q 592.60 216.33 585.25 216.94
      Q 583.30 217.11 577.41 218.23
      Q 572.78 219.12 569.66 220.05
      Q 550.02 225.95 532.43 238.43
      Q 522.72 245.32 513.86 252.80
      Q 506.06 259.39 496.56 268.67
      Q 477.41 287.37 472.92 291.41
      Q 455.39 307.16 436.09 318.82
      Q 424.75 325.67 413.64 329.36
      Q 406.03 331.89 397.62 333.29
      Q 394.73 333.77 390.36 333.95
      Q 384.61 334.19 383.03 334.20
      Q 373.24 334.20 366.54 332.81
      Q 364.17 332.31 361.46 331.61
      Q 355.48 330.07 348.09 326.46
      A 0.06 0.06 0.0 0 1 348.05 326.42
      L 347.91 326.19
      A 0.19 0.19 0.0 0 0 347.79 326.10
      Z"
    />
    <path fill="#ffffff" d="
      M 778.38 393.13
      A 0.12 0.12 0.0 0 1 778.16 393.22
      Q 760.01 363.34 725.04 358.89
      Q 722.79 358.60 711.56 358.80
      Q 707.36 358.87 704.00 359.60
      C 701.06 360.23 697.07 360.79 694.03 361.58
      Q 682.41 364.59 671.26 365.78
      Q 668.11 366.11 661.78 364.40
      C 654.50 362.44 649.83 355.70 651.42 347.66
      C 652.86 340.38 656.64 328.90 656.08 318.47
      C 655.52 308.03 650.82 297.92 643.03 291.52
      Q 636.42 286.10 627.23 282.95
      Q 619.39 280.26 611.01 279.89
      C 596.60 279.24 581.05 283.90 567.85 289.88
      Q 556.54 295.01 545.94 301.45
      Q 527.12 312.89 508.02 322.83
      Q 499.44 327.29 490.72 331.22
      Q 474.96 338.33 458.03 341.85
      Q 445.33 344.49 425.19 344.56
      C 420.40 344.58 415.33 343.76 410.46 343.81
      A 0.20 0.20 0.0 0 1 410.40 343.42
      Q 437.65 335.25 460.36 317.85
      C 478.47 303.97 493.76 289.14 510.83 271.84
      Q 514.01 268.62 528.08 257.09
      Q 541.35 246.20 556.88 238.39
      Q 562.96 235.33 570.43 232.93
      Q 595.99 224.70 621.31 233.97
      Q 629.11 236.83 640.84 242.67
      Q 644.41 244.44 655.20 249.07
      C 664.27 252.96 675.76 255.98 685.68 254.90
      Q 698.95 253.45 710.77 246.14
      A 0.71 0.71 0.0 0 1 711.63 246.24
      Q 739.51 273.94 756.37 309.07
      Q 773.14 343.99 776.81 379.46
      Q 777.12 382.37 777.35 383.51
      C 778.06 387.02 777.72 389.81 778.38 393.13
      Z"
    />
    <path fill="#ffffff" d="
      M 461.18 654.27
      Q 460.95 654.13 460.47 653.25
      Q 460.39 653.11 460.13 652.15
      Q 460.02 651.76 459.65 651.09
      Q 449.36 632.33 433.37 617.86
      Q 413.41 599.78 387.66 589.85
      Q 374.97 584.95 360.73 581.27
      Q 347.02 577.72 333.09 573.63
      Q 320.08 569.81 308.49 562.72
      A 1.46 0.05 39.4 0 1 307.69 562.11
      Q 307.20 561.71 306.60 561.50
      A 0.69 0.68 9.5 0 1 306.13 560.85
      C 306.11 549.37 306.37 538.56 305.91 527.45
      Q 305.60 519.90 306.20 515.80
      Q 307.82 504.78 315.41 496.19
      Q 320.96 489.91 328.10 486.74
      Q 329.14 486.28 332.15 485.39
      Q 341.43 482.68 351.17 485.65
      Q 360.08 488.36 367.83 494.94
      C 375.68 501.60 381.73 507.24 388.81 511.17
      Q 391.86 512.86 395.54 514.01
      Q 399.38 515.21 401.93 515.16
      Q 402.22 515.16 408.77 515.13
      A 2.76 2.66 -57.4 0 0 409.90 514.86
      Q 411.57 514.03 413.17 514.10
      A 0.55 0.54 -71.8 0 0 413.64 513.86
      Q 413.77 513.68 415.13 513.13
      Q 423.60 509.72 426.67 501.50
      Q 428.37 496.95 427.13 492.00
      Q 426.12 487.99 422.19 484.41
      Q 418.75 481.27 414.45 479.32
      Q 409.98 477.30 405.00 475.01
      Q 401.36 473.34 399.60 470.33
      A 3.11 2.98 25.3 0 1 399.25 469.42
      Q 397.87 462.78 403.58 459.35
      A 2.18 2.02 20.6 0 1 404.07 459.15
      Q 406.95 458.48 412.82 458.86
      Q 414.74 458.99 421.17 458.95
      Q 476.88 458.57 546.36 458.75
      C 551.32 458.76 555.69 458.10 559.70 458.05
      A 2.65 2.61 32.0 0 0 560.73 457.82
      Q 562.46 457.04 564.76 457.10
      A 1.56 1.52 27.3 0 0 565.68 456.82
      Q 566.44 456.28 568.40 456.09
      Q 568.67 456.07 569.53 455.80
      Q 598.24 446.93 612.16 421.19
      Q 614.23 417.37 615.70 413.20
      Q 617.61 407.79 618.05 404.77
      Q 618.36 402.63 618.95 400.49
      A 2.22 2.20 54.2 0 0 619.03 399.98
      Q 619.65 385.69 618.96 381.27
      Q 615.00 355.79 596.26 338.73
      Q 577.24 321.41 551.15 318.10
      C 548.47 317.76 546.08 317.84 543.61 317.96
      A 0.42 0.41 -71.2 0 1 543.28 317.28
      Q 543.30 317.26 543.90 317.21
      Q 544.16 317.19 544.59 316.93
      Q 556.20 309.68 566.59 304.60
      Q 575.94 300.04 585.65 296.72
      Q 600.50 291.66 614.48 293.13
      Q 626.28 294.38 634.46 301.23
      C 643.72 308.99 645.36 319.31 642.70 330.74
      Q 639.96 342.51 639.63 344.12
      Q 635.71 363.47 651.39 373.35
      Q 654.32 375.20 658.33 376.46
      Q 662.42 377.75 665.77 378.10
      C 668.88 378.43 675.47 378.29 680.04 377.46
      Q 690.15 375.61 698.74 373.52
      C 710.67 370.62 722.45 369.97 734.00 373.38
      A 3.15 1.22 2.7 0 1 734.93 373.79
      Q 735.53 374.22 736.60 374.15
      Q 737.43 374.10 737.76 374.64
      Q 738.02 375.07 738.56 375.07
      Q 739.09 375.07 739.45 375.22
      Q 754.76 381.65 764.53 395.22
      Q 776.62 412.01 775.57 432.64
      Q 774.28 458.03 756.12 476.04
      Q 752.74 479.39 746.42 484.70
      Q 740.58 489.61 735.79 492.34
      Q 724.33 498.88 710.48 501.99
      Q 707.88 502.58 701.84 503.48
      C 698.47 503.98 695.76 503.99 691.44 504.33
      Q 686.03 504.77 679.45 504.19
      Q 674.88 503.79 673.08 503.85
      C 670.22 503.96 667.82 503.22 664.59 502.87
      C 649.10 501.20 633.61 496.58 618.21 491.82
      Q 593.96 484.32 570.25 480.49
      Q 567.90 480.11 562.26 479.68
      Q 557.35 479.31 554.27 479.22
      Q 548.14 479.06 539.20 480.93
      Q 524.60 483.98 513.04 493.31
      Q 512.18 494.00 508.67 497.58
      C 502.61 503.76 498.94 511.63 498.79 520.05
      C 498.59 530.82 503.16 538.74 511.74 544.80
      Q 514.76 546.93 522.17 551.48
      C 525.85 553.73 530.32 557.34 531.15 561.72
      C 532.65 569.73 525.98 575.69 519.22 578.47
      C 510.69 582.00 503.20 582.85 493.24 584.75
      Q 477.49 587.74 468.64 595.88
      Q 463.94 600.21 461.98 606.43
      Q 460.75 610.34 460.82 618.94
      Q 460.95 635.38 460.86 647.99
      C 460.84 649.89 461.35 652.01 461.70 653.91
      A 0.35 0.35 0.0 0 1 461.18 654.27
      Z"
    />
    <path fill="#ffffff" d="
      M 759.97 489.33
      Q 754.10 501.61 746.15 513.66
      Q 727.21 542.42 699.64 562.63
      Q 689.00 570.42 675.74 577.16
      Q 665.80 582.21 653.79 587.13
      Q 643.41 591.38 630.86 594.56
      Q 615.46 598.46 603.01 599.73
      Q 600.57 599.98 600.52 600.00
      C 596.43 601.06 592.55 600.75 588.66 601.17
      Q 584.27 601.65 581.75 601.69
      C 562.17 602.01 539.11 601.05 520.74 601.07
      Q 494.81 601.10 483.40 601.24
      A 0.43 0.43 0.0 0 1 483.23 600.42
      Q 486.46 599.04 489.79 598.04
      Q 492.96 597.08 496.61 596.43
      Q 509.37 594.17 514.83 592.79
      Q 517.31 592.17 522.86 590.11
      Q 528.99 587.84 534.33 583.30
      C 541.99 576.78 545.57 568.04 542.97 558.28
      Q 541.00 550.91 533.56 545.14
      Q 529.92 542.32 519.72 535.81
      C 508.44 528.62 508.70 515.64 517.19 506.41
      Q 524.73 498.21 536.19 494.65
      Q 539.22 493.71 543.08 492.96
      Q 547.06 492.18 550.10 492.13
      Q 559.72 491.99 561.76 492.17
      C 582.40 493.97 601.72 499.66 623.23 506.28
      Q 643.74 512.60 663.00 515.55
      C 666.99 516.16 671.07 516.12 674.76 517.04
      A 2.96 2.61 48.7 0 0 675.46 517.13
      L 693.80 517.13
      A 3.29 2.94 -48.3 0 0 694.50 517.05
      C 698.23 516.24 701.75 516.29 705.10 515.71
      Q 719.84 513.20 730.28 509.01
      Q 747.24 502.20 759.59 489.07
      A 0.23 0.23 0.0 0 1 759.97 489.33
      Z"
    />
    <path fill="#ffffff" d="
      M 293.45 597.79
      A 0.15 0.15 0.0 0 1 293.16 597.86
      Q 284.27 578.91 270.97 562.84
      Q 264.17 554.62 262.77 552.75
      Q 259.02 547.73 257.21 541.88
      A 2.12 2.02 -53.0 0 1 257.13 541.18
      Q 257.21 540.12 256.71 539.03
      C 254.99 535.24 257.08 530.10 257.23 527.21
      A 0.99 0.97 70.9 0 1 257.55 526.53
      Q 258.13 525.98 258.10 525.33
      A 1.57 0.30 84.2 0 1 258.19 524.31
      Q 263.07 513.90 270.97 510.18
      Q 282.09 504.95 293.43 512.12
      A 1.13 1.10 -74.0 0 1 293.95 513.09
      C 293.89 516.70 293.54 520.56 293.54 523.67
      Q 293.60 557.93 293.09 591.50
      Q 293.07 592.65 293.45 597.79
      Z"
    />
    <path fill="#ffffff" d="
      M 306.20 576.31
      A 0.31 0.30 15.5 0 1 306.65 576.06
      Q 318.50 582.47 332.55 586.46
      Q 346.87 590.53 355.92 592.79
      Q 370.64 596.46 379.11 599.67
      Q 397.18 606.51 411.12 615.87
      Q 435.37 632.16 448.78 657.05
      Q 453.45 665.72 454.78 670.99
      Q 454.90 671.44 454.90 671.46
      A 1.13 1.12 27.1 0 0 455.21 672.41
      Q 455.92 673.12 455.89 674.41
      A 1.95 1.92 -63.0 0 0 456.26 675.58
      Q 456.69 676.15 456.81 676.66
      Q 460.65 692.97 460.76 696.81
      C 460.88 700.79 461.66 704.74 461.71 708.75
      Q 461.85 719.06 460.49 728.04
      Q 457.95 744.83 447.81 759.05
      Q 436.50 774.91 419.98 783.79
      Q 417.93 784.89 417.27 785.18
      Q 415.13 786.16 414.28 786.69
      Q 414.12 786.79 412.79 787.34
      Q 398.97 793.03 385.99 793.36
      Q 367.27 793.84 351.74 786.78
      Q 322.86 773.65 311.16 744.21
      Q 308.77 738.22 307.18 730.60
      Q 305.95 724.70 305.90 716.46
      C 305.87 709.36 306.23 697.76 306.01 686.84
      C 305.40 655.61 304.62 630.26 305.90 599.91
      C 306.25 591.52 305.86 582.71 306.20 576.31
      Z"
    />
    </g>
</svg>
